# xmcd
#
# Track frame offsets:
#	150
#	15344
#	39188
#	70557
#	94532
#	178423
#	218287
#	236005
#	261904
#	323926
#
# Disc length: 4737 seconds
#
# Revision: 0
# Processed by: cddbd v1.4b42PL1 Copyright (c) Steve Scherf et al.
# Submitted via: EasyCDDAExtractor 4.5.0.1
#
DISCID=78127f0a
DTITLE=Led Zeppelin - BBC Sessions CD Two
DYEAR=1997
DGENRE=blues
TTITLE0=Inmigrant Song
TTITLE1=Heartbreaker
TTITLE2=Since I've Been Loving You
TTITLE3=Black Dog
TTITLE4=Dazed And Confused
TTITLE5=Stairway To Heaven
TTITLE6=Going To California
TTITLE7=That's The Way
TTITLE8=Whole Lotta Love (Medley)
TTITLE9=Thank You
EXTD=
EXTT0=
EXTT1=
EXTT2=
EXTT3=
EXTT4=
EXTT5=
EXTT6=
EXTT7=
EXTT8=
EXTT9=
PLAYORDER=
